<svg width="60" height="60" viewBox="0 0 60 60" fill="none" xmlns="http://www.w3.org/2000/svg">
<path d="M24.9043 8.19617C27.252 4.41994 32.748 4.41994 35.0957 8.19616L38.7628 14.0944C39.5888 15.4231 40.9011 16.3765 42.42 16.7516L49.1629 18.4168C53.4796 19.4828 55.1778 24.7095 52.3122 28.1092L47.8355 33.4204C46.8273 34.6165 46.3261 36.1591 46.4387 37.7194L46.9388 44.6474C47.2589 49.0824 42.8126 52.3127 38.6937 50.6377L32.2603 48.0215C30.8111 47.4321 29.1889 47.4321 27.7397 48.0215L21.3063 50.6377C17.1874 52.3127 12.7411 49.0824 13.0612 44.6474L13.5613 37.7194C13.6739 36.1591 13.1727 34.6165 12.1645 33.4204L7.68776 28.1092C4.82215 24.7095 6.52042 19.4828 10.8371 18.4168L17.58 16.7516C19.0989 16.3765 20.4111 15.4231 21.2372 14.0944L24.9043 8.19617Z" fill="#A3D2E2"/>
<path d="M30.0007 44.2523C37.4569 44.2523 43.5013 38.2078 43.5013 30.7516C43.5013 23.2954 37.4569 17.251 30.0007 17.251C22.5445 17.251 16.5 23.2954 16.5 30.7516C16.5 38.2078 22.5445 44.2523 30.0007 44.2523Z" fill="#A3D2E2"/>
<path d="M24.3873 34.9667C24.4211 35.101 25.2633 38.251 30.0011 38.251C34.7396 38.251 35.5811 35.101 35.6149 34.9667C35.6561 34.804 35.5826 34.6352 35.4371 34.5512C35.2908 34.468 35.1079 34.4927 34.9871 34.609C34.9729 34.6232 33.5216 36.001 30.0011 36.001C26.4806 36.001 25.0286 34.6232 25.0151 34.6097C24.9431 34.5385 24.8471 34.501 24.7511 34.501C24.6881 34.501 24.6243 34.5167 24.5666 34.549C24.4196 34.633 24.3461 34.8032 24.3873 34.9667Z" fill="#1C1B1F"/>
<path d="M25.5015 30.001C26.537 30.001 27.3765 28.8257 27.3765 27.376C27.3765 25.9262 26.537 24.751 25.5015 24.751C24.4659 24.751 23.6265 25.9262 23.6265 27.376C23.6265 28.8257 24.4659 30.001 25.5015 30.001Z" fill="#1C1B1F"/>
<path d="M34.501 30.001C35.5365 30.001 36.376 28.8257 36.376 27.376C36.376 25.9262 35.5365 24.751 34.501 24.751C33.4654 24.751 32.626 25.9262 32.626 27.376C32.626 28.8257 33.4654 30.001 34.501 30.001Z" fill="#1C1B1F"/>
</svg>
